<svg xmlns="http://www.w3.org/2000/svg" xmlns:svg="http://www.w3.org/2000/svg" id="svg2" width="625" height="393.237" version="1.1"><metadata id="metadata7"/><g id="layer1" transform="translate(-52.000058,-171.12534)"><flowRoot font-variant="normal" style="text-align:start;line-height:125%;-inkscape-font-specification:Sans" id="flowRoot2987" fill="#000" fill-opacity="1" stroke="none" font-family="Sans" font-size="24" font-stretch="normal" font-style="normal" font-weight="normal" letter-spacing="0" text-anchor="start" transform="translate(50,112.85714)" word-spacing="0" writing-mode="lr-tb" xml:space="preserve"><flowRegion id="flowRegion2989"><rect font-stretch="normal" style="text-align:start;line-height:125%;-inkscape-font-specification:Sans" id="rect2991" width="212.857" height="101.429" x="68.571" y="69.505" font-family="Sans" font-size="24" font-style="normal" font-variant="normal" font-weight="normal" text-anchor="start" writing-mode="lr-tb"/></flowRegion><flowPara id="flowPara2993">Implement GUI</flowPara></flowRoot><rect id="rect2995" width="201.429" height="71.429" x="112.857" y="172.362" fill="#000" fill-opacity=".153"/><flowRoot id="flowRoot3840" fill="#000" fill-opacity="1" stroke="none" font-family="Sans" font-size="14" font-stretch="normal" font-style="normal" font-variant="normal" font-weight="normal" letter-spacing="0" text-anchor="start" word-spacing="0" writing-mode="lr-tb" xml:space="preserve" style="text-align:start;line-height:125%;-inkscape-font-specification:Sans"><flowRegion id="flowRegion3842"><rect id="rect3844" width="160" height="20" x="134.286" y="218.076"/></flowRegion><flowPara id="flowPara3846"/></flowRoot><flowRoot id="flowRoot3852" fill="#000" fill-opacity="1" stroke="none" font-family="Sans" font-size="16" font-stretch="normal" font-style="normal" font-variant="normal" font-weight="normal" letter-spacing="0" text-anchor="start" word-spacing="0" writing-mode="lr-tb" xml:space="preserve" style="text-align:start;line-height:125%;-inkscape-font-specification:Sans"><flowRegion id="flowRegion3854"><rect font-stretch="normal" style="text-align:start;line-height:125%;-inkscape-font-specification:Sans" id="rect3856" width="172.857" height="15.714" x="122.857" y="218.076" font-family="Sans" font-size="16" font-style="normal" font-variant="normal" font-weight="normal" text-anchor="start" writing-mode="lr-tb"/></flowRegion><flowPara id="flowPara3860">Picture instead animation</flowPara></flowRoot><flowRoot id="flowRoot3862" fill="#000" fill-opacity="1" stroke="none" font-family="Sans" font-size="14" font-stretch="normal" font-style="normal" font-variant="normal" font-weight="normal" letter-spacing="0" text-anchor="start" word-spacing="0" writing-mode="lr-tb" xml:space="preserve" style="text-align:start;line-height:125%;-inkscape-font-specification:Sans"><flowRegion id="flowRegion3864"><rect id="rect3866" width="65.714" height="24.286" x="232.857" y="355.219"/></flowRegion><flowPara id="flowPara3868">asdfasdfaasdf</flowPara></flowRoot><flowRoot id="flowRoot3870" fill="#000" fill-opacity="1" stroke="none" font-family="Sans" font-size="14" font-stretch="normal" font-style="normal" font-variant="normal" font-weight="normal" letter-spacing="0" text-anchor="start" word-spacing="0" writing-mode="lr-tb" xml:space="preserve" style="text-align:start;line-height:125%;-inkscape-font-specification:Sans"><flowRegion id="flowRegion3872"><rect id="rect3874" width="41.429" height="20" x="240" y="359.505"/></flowRegion><flowPara id="flowPara3876">adfdfff</flowPara></flowRoot><flowRoot id="flowRoot3878" fill="#000" fill-opacity="1" stroke="none" font-family="Sans" font-size="14" font-stretch="normal" font-style="normal" font-variant="normal" font-weight="normal" letter-spacing="0" text-anchor="start" word-spacing="0" writing-mode="lr-tb" xml:space="preserve" style="text-align:start;line-height:125%;-inkscape-font-specification:Sans"><flowRegion id="flowRegion3880"><rect id="rect3882" width="192.857" height="37.143" x="117.143" y="216.648"/></flowRegion><flowPara id="flowPara3884">Image instead of animation</flowPara><flowPara id="flowPara3886"/></flowRoot><flowRoot font-variant="normal" style="text-align:start;line-height:125%;-inkscape-font-specification:Sans" id="flowRoot2987-84" fill="#000" fill-opacity="1" stroke="none" font-family="Sans" font-size="24" font-stretch="normal" font-style="normal" font-weight="normal" letter-spacing="0" text-anchor="start" transform="translate(331.32781,111.6203)" word-spacing="0" writing-mode="lr-tb" xml:space="preserve"><flowRegion id="flowRegion2989-9"><rect font-stretch="normal" style="text-align:start;line-height:125%;-inkscape-font-specification:Sans" id="rect2991-8" width="212.857" height="101.429" x="68.571" y="69.505" font-family="Sans" font-size="24" font-style="normal" font-variant="normal" font-weight="normal" text-anchor="start" writing-mode="lr-tb"/></flowRegion><flowPara id="flowPara3933">Add OpenGL ES</flowPara></flowRoot><rect id="rect2995-4" width="201.429" height="71.429" x="394.185" y="171.125" fill="#000" fill-opacity=".153"/><flowRoot font-variant="normal" style="text-align:start;line-height:125%;-inkscape-font-specification:Sans" id="flowRoot3878-1" fill="#000" fill-opacity="1" stroke="none" font-family="Sans" font-size="14" font-stretch="normal" font-style="normal" font-weight="normal" letter-spacing="0" text-anchor="start" transform="translate(307.04209,-2.665413)" word-spacing="0" writing-mode="lr-tb" xml:space="preserve"><flowRegion id="flowRegion3880-9"><rect font-stretch="normal" style="text-align:start;line-height:125%;-inkscape-font-specification:Sans" id="rect3882-6" width="192.857" height="37.143" x="117.143" y="216.648" font-family="Sans" font-size="14" font-style="normal" font-variant="normal" font-weight="normal" text-anchor="start" writing-mode="lr-tb"/></flowRegion><flowPara id="flowPara3939">Animation from SDK</flowPara><flowPara id="flowPara3941"/></flowRoot><flowRoot font-variant="normal" style="text-align:start;line-height:125%;-inkscape-font-specification:Sans" id="flowRoot2987-84-1" fill="#000" fill-opacity="1" stroke="none" font-family="Sans" font-size="24" font-stretch="normal" font-style="normal" font-weight="normal" letter-spacing="0" text-anchor="start" transform="matrix(0.94793573,0,0,1,374.51586,255.38162)" word-spacing="0" writing-mode="lr-tb" xml:space="preserve"><flowRegion id="flowRegion2989-9-2"><rect font-stretch="normal" style="text-align:start;line-height:125%;-inkscape-font-specification:Sans" id="rect2991-8-4" width="212.857" height="101.429" x="68.571" y="69.505" font-family="Sans" font-size="24" font-style="normal" font-variant="normal" font-weight="normal" text-anchor="start" writing-mode="lr-tb"/></flowRegion><flowPara id="flowPara4013">XML parser</flowPara></flowRoot><rect id="rect2995-4-5" width="201.429" height="71.429" x="416.766" y="313.887" fill="#000" fill-opacity=".153"/><flowRoot font-variant="normal" style="text-align:start;line-height:125%;-inkscape-font-specification:Sans" id="flowRoot3878-1-5" fill="#000" fill-opacity="1" stroke="none" font-family="Sans" font-size="14" font-stretch="normal" font-style="normal" font-weight="normal" letter-spacing="0" text-anchor="start" transform="translate(315.42101,140.09591)" word-spacing="0" writing-mode="lr-tb" xml:space="preserve"><flowRegion id="flowRegion3880-9-8"><rect font-stretch="normal" style="text-align:start;line-height:125%;-inkscape-font-specification:Sans" id="rect3882-6-0" width="192.857" height="37.143" x="117.143" y="216.648" font-family="Sans" font-size="14" font-style="normal" font-variant="normal" font-weight="normal" text-anchor="start" writing-mode="lr-tb"/></flowRegion><flowPara id="flowPara4015">Knot definition is in XML</flowPara></flowRoot><rect id="rect2995-4-3" width="269.429" height="71.429" x="100.071" y="313.639" fill="#000" fill-opacity=".153"/><flowRoot font-variant="normal" style="text-align:start;line-height:125%;-inkscape-font-specification:Sans" id="flowRoot3878-1-2" fill="#000" fill-opacity="1" stroke="none" font-family="Sans" font-size="14" font-stretch="normal" font-style="normal" font-weight="normal" letter-spacing="0" text-anchor="start" transform="translate(49.92849,139.84837)" word-spacing="0" writing-mode="lr-tb" xml:space="preserve"><flowRegion id="flowRegion3880-9-0"><rect font-stretch="normal" style="text-align:start;line-height:125%;-inkscape-font-specification:Sans" id="rect3882-6-7" width="192.857" height="37.143" x="117.143" y="216.648" font-family="Sans" font-size="14" font-style="normal" font-variant="normal" font-weight="normal" text-anchor="start" writing-mode="lr-tb"/></flowRegion><flowPara id="flowPara4031">Qt app in real PC</flowPara><flowPara id="flowPara4033"/></flowRoot><flowRoot font-variant="normal" style="text-align:start;line-height:125%;-inkscape-font-specification:Sans" id="flowRoot4021" fill="#000" fill-opacity="1" stroke="none" font-family="Sans" font-size="24" font-stretch="normal" font-style="normal" font-weight="normal" letter-spacing="0" text-anchor="start" transform="translate(-290.6316,19.115223)" word-spacing="0" writing-mode="lr-tb" xml:space="preserve"><flowRegion id="flowRegion4023"><rect font-stretch="normal" style="text-align:start;line-height:125%;-inkscape-font-specification:Sans" id="rect4025" width="267" height="36" x="400" y="303.362" font-family="Sans" font-size="24" font-style="normal" font-variant="normal" font-weight="normal" text-anchor="start" writing-mode="lr-tb"/></flowRegion><flowPara id="flowPara4029">Animation in OpenGL</flowPara></flowRoot><flowRoot font-variant="normal" style="text-align:start;line-height:125%;-inkscape-font-specification:Sans" id="flowRoot2987-84-18" fill="#000" fill-opacity="1" stroke="none" font-family="Sans" font-size="24" font-stretch="normal" font-style="normal" font-weight="normal" letter-spacing="0" text-anchor="start" transform="matrix(1.1713736,0,0,1,183.64663,379.14286)" word-spacing="0" writing-mode="lr-tb" xml:space="preserve"><flowRegion id="flowRegion2989-9-5"><rect font-stretch="normal" style="text-align:start;line-height:125%;-inkscape-font-specification:Sans" id="rect2991-8-2" width="212.857" height="101.429" x="68.571" y="69.505" font-family="Sans" font-size="24" font-style="normal" font-variant="normal" font-weight="normal" text-anchor="start" writing-mode="lr-tb"/></flowRegion><flowPara id="flowPara4084">Animate in OpenGL ES</flowPara></flowRoot><rect id="rect2995-4-0" width="226.429" height="71.429" x="240.286" y="443.648" fill="#000" fill-opacity=".153"/><path id="path4086" fill="none" stroke="#000" stroke-linecap="butt" stroke-linejoin="miter" stroke-opacity="1" stroke-width="1" d="m 312,206.36218 80,0"/><path id="path4088" fill="none" stroke="#000" stroke-linecap="butt" stroke-linejoin="miter" stroke-opacity="1" stroke-width="1" d="m 543,241.36218 0,71"/><path id="path4092" fill="none" stroke="#000" stroke-linecap="butt" stroke-linejoin="miter" stroke-opacity="1" stroke-width=".494" d="m 414.46543,343.70533 -42.89689,0" display="inline"/><path id="path4098" fill="none" stroke="#000" stroke-linecap="butt" stroke-linejoin="miter" stroke-opacity="1" stroke-width="1.378" d="m 380.37977,329.3941 -10.12246,13.12246"/><path id="path4100" fill="none" stroke="#000" stroke-linecap="butt" stroke-linejoin="miter" stroke-opacity="1" stroke-width="1" d="m 370.06854,342.70533 13,15" display="inline"/><path id="path4104" fill="none" stroke="#000" stroke-linecap="butt" stroke-linejoin="miter" stroke-opacity="1" stroke-width="1" d="m 386.5,196.36218 c 0.5,0.66667 2.16667,1.5 1.5,2 -0.66667,0.5 -2.24536,-2.37268 -1.5,-2 1.05409,0.52705 1.66667,1.66667 2.5,2.5 0.16667,0.16667 0.39459,0.28918 0.5,0.5 0.0745,0.14907 -0.11785,0.38215 0,0.5 0.11785,0.11785 0.38215,-0.11785 0.5,0 0.10222,0.10222 -0.0991,1.30176 0,1.5 0.10541,0.21082 0.39459,0.28918 0.5,0.5 0.0745,0.14907 -0.11785,0.38215 0,0.5 0.11785,0.11785 0.38215,-0.11785 0.5,0 0.2357,0.2357 -0.14907,0.70186 0,1 0.61785,1.2357 0.5,-0.17259 0.5,1 0,0.16667 0.16667,0.5 0,0.5 -0.16667,0 -0.16667,-0.5 0,-0.5 0.16667,0 0.16667,0.5 0,0.5 -0.16667,0 -0.11785,-0.38215 0,-0.5 0.11785,-0.11785 0.38215,-0.11785 0.5,0 0.11785,0.11785 0.16667,0.5 0,0.5 -0.16667,0 -0.16667,-0.5 0,-0.5 0.16667,0 0,0.33334 0,0.5 -0.5,1.16667 -0.93235,2.36471 -1.5,3.5 -0.10541,0.21082 -0.39459,0.28918 -0.5,0.5 -0.0745,0.14907 0.11785,0.38215 0,0.5 -0.11785,0.11785 -0.38215,-0.11785 -0.5,0 -0.11785,0.11785 0.11785,0.38215 0,0.5 -0.11785,0.11785 -0.38215,-0.11785 -0.5,0 -0.11785,0.11785 0.11785,0.38215 0,0.5 -0.11785,0.11785 -0.38215,-0.11785 -0.5,0 -1.03452,1.03452 1.58088,-0.0404 -0.5,1 -0.14907,0.0745 -0.38215,-0.11785 -0.5,0 -0.11785,0.11785 0.16667,0.5 0,0.5 -0.16667,0 -0.16667,-0.5 0,-0.5 0.33333,0 -0.2357,0.7643 0,1 0.11785,0.11785 0.5,-0.16666 0.5,0 0,0.16667 -0.33333,0 -0.5,0"/><path id="path4143" fill="none" stroke="#000" stroke-linecap="butt" stroke-linejoin="miter" stroke-opacity="1" stroke-width="1" d="m 467,484.36218 c 73.5,-27.5 76,-93 76,-93"/><path id="path4145" fill="none" stroke="#000" stroke-linecap="butt" stroke-linejoin="miter" stroke-opacity="1" stroke-width="1" d="m 144,390.36218 c 3,75.5 94.5,94 94.5,94"/><path id="path4147" fill="none" stroke="#000" stroke-linecap="butt" stroke-linejoin="miter" stroke-opacity="1" stroke-width="1" d="m 238,484.11218 -9,9"/><path id="path4149" fill="none" stroke="#000" stroke-linecap="butt" stroke-linejoin="miter" stroke-opacity="1" stroke-width="1" d="m 238,484.36218 -6,-9"/><path id="path4151" fill="none" stroke="#000" stroke-linecap="butt" stroke-linejoin="miter" stroke-opacity="1" stroke-width="1" d="m 144.8684,387.47741 -10.25,5.75"/><path id="path4153" fill="none" stroke="#000" stroke-linecap="butt" stroke-linejoin="miter" stroke-opacity="1" stroke-width="1" d="m 154.3684,393.72741 -9.5,-6.5"/><path id="path4174" fill="none" stroke="#000" stroke-linecap="butt" stroke-linejoin="miter" stroke-opacity="1" stroke-width="1" d="m 543.6184,312.47741 12,-6.5"/><path id="path4176" fill="none" stroke="#000" stroke-linecap="butt" stroke-linejoin="miter" stroke-opacity="1" stroke-width="1" d="m 543.6184,312.97741 -12.25,-7.5"/><path id="path4182" fill="#3232ff" fill-opacity=".079" d="m 426,358.86218 c 0,21.26297 -23.95277,38.5 -53.5,38.5 -29.54723,0 -53.5,-17.23703 -53.5,-38.5 0,-21.26296 23.95277,-38.5 53.5,-38.5 29.54723,0 53.5,17.23704 53.5,38.5 z" transform="matrix(5.8411215,0,0,4.2077922,-1811.3177,-1107.6553)"/><flowRoot font-variant="normal" style="text-align:start;line-height:125%;-inkscape-font-specification:Sans" id="flowRoot4184" fill="#000" fill-opacity="1" stroke="none" font-family="Sans" font-size="14" font-stretch="normal" font-style="normal" font-weight="normal" letter-spacing="0" text-anchor="start" transform="translate(-4,-1)" word-spacing="0" writing-mode="lr-tb" xml:space="preserve"><flowRegion id="flowRegion4186"><rect id="rect4188" width="93" height="16" x="340" y="397.362"/></flowRegion><flowPara id="flowPara4190">Redisign</flowPara><flowPara id="flowPara4192"/></flowRoot></g></svg>